#!OML:ASF E:\emotionWalksFemale\Project 1\Capture day 1\Session 1\Female1.ASF
:FULLY-SPECIFIED
:DEGREES
291
root 7.86961 12.8181 23.9842 -155.79 1.24198 -178.586
lowerback 30.3149 0.107048 -0.434682
upperback -1.56686 0.144144 -0.476964
thorax -17.9418 0.176468 -0.386924
lowerneck -13.383 -4.74044 -6.22786
upperneck -10.6259 -3.64986 9.63398
head -0.780715 -0.92536 4.16858
rclavicle 0 -1.35174e-014
rhumerus 63.6705 -42.5586 -38.8461
rradius 93.8957
rwrist 0.573804
rhand -30.1638 -44.0533
rfingers 7.12502
rthumb -3.47566 -74.0047
lclavicle 0 -1.35174e-014
lhumerus 86.3387 47.2935 56.1021
lradius 76.6159
lwrist 49.5552
lhand -28.995 -79.7121
lfingers 7.12502
lthumb -2.34684 -49.7453
rfemur -69.2481 3.62985 27.3237
rtibia 80.1344
rfoot -32.8615 -24.5115
rtoes 1.16517
lfemur -72.4547 2.77354 -21.9936
ltibia 80.9421
lfoot -36.5063 -4.50018
ltoes -19.7555
292
root 7.87295 12.7257 24.0563 -155.342 1.28908 -178.557
lowerback 31.4084 0.122206 -0.658872
upperback -1.97314 0.0675182 -0.384074
thorax -18.9722 0.164263 -0.131828
lowerneck -10.7583 -4.3949 -6.25495
upperneck -12.0497 -3.26978 9.56853
head -1.73897 -0.823676 4.22372
rclavicle -3.18055e-015 3.18055e-015
rhumerus 60.0179 -41.0497 -35.9434
rradius 95.7515
rwrist 1.88563
rhand -29.9357 -43.6856
rfingers 7.12502
rthumb -3.25532 -73.6405
lclavicle -3.18055e-015 3.18055e-015
lhumerus 81.2412 47.0531 52.5623
lradius 79.062
lwrist 51.3956
lhand -29.0651 -79.7836
lfingers 7.12502
lthumb -2.41463 -49.8175
rfemur -70.7825 3.81511 27.3636
rtibia 81.2762
rfoot -32.9606 -24.4779
rtoes 1.91742
lfemur -74.0043 2.85153 -22.0567
ltibia 82.0225
lfoot -36.4476 -4.70087
ltoes -18.9599
293
root 7.87461 12.6347 24.1263 -155.048 1.38093 -178.517
lowerback 31.8554 0.153632 -0.620026
upperback -0.900935 0.216766 -0.613758
thorax -17.847 0.26241 -0.486999
lowerneck -15.4792 -4.9744 -5.40848
upperneck -10.9713 -3.7088 9.45484
head -0.567045 -0.817328 3.9226
rclavicle 5.1684e-015 8.94531e-015
rhumerus 58.0659 -41.274 -34.3641
rradius 97.214
rwrist 3.88621
rhand -29.8548 -43.5625
rfingers 7.12502
rthumb -3.17724 -73.5186
lclavicle 5.1684e-015 8.94531e-015
lhumerus 79.9474 46.9384 52.2964
lradius 81.7555
lwrist 52.2952
lhand -28.8525 -79.788
lfingers 7.12502
lthumb -2.20926 -49.8197
rfemur -72.1216 3.92267 27.4614
rtibia 82.37
rfoot -33.0698 -24.3785
rtoes 2.65892
lfemur -75.3565 2.9863 -22.1297
ltibia 83.085
lfoot -36.4568 -4.88234
ltoes -18.6206
294
root 7.8742 12.5454 24.195 -154.805 1.52722 -178.587
lowerback 33.1095 0.205737 -0.889991
upperback -1.31641 0.173911 -0.454446
thorax -18.9426 0.271181 -0.15199
lowerneck -10.9065 -4.58116 -7.15261
upperneck -13.7986 -2.93995 11.0682
head -1.98586 -0.544356 4.49668
rclavicle -4.17448e-015 -6.75868e-015
rhumerus 54.4943 -39.3093 -30.8609
rradius 98.5338
rwrist 4.41536
rhand -30.0071 -44.0523
rfingers 7.12502
rthumb -3.32436 -74.0061
lclavicle -4.17448e-015 -6.75868e-015
lhumerus 74.822 45.8972 49.2238
lradius 83.9921
lwrist 53.1686
lhand -28.641 -79.4283
lfingers 7.12502
lthumb -2.00499 -49.4579
rfemur -73.4152 4.01901 27.4052
rtibia 83.4274
rfoot -33.0392 -24.3108
rtoes 3.27185
lfemur -76.6079 3.10351 -22.358
ltibia 84.0998
lfoot -36.5195 -4.79132
ltoes -19.0644
295
root 7.87377 12.4602 24.2607 -154.559 1.67455 -178.604
lowerback 34.0813 0.291508 -0.988097
upperback -1.01591 0.306858 -0.426937
thorax -19.005 0.361978 -0.141761
lowerneck -12.0261 -4.78428 -7.28395
upperneck -13.599 -3.08374 10.9942
head -1.7426 -0.538743 4.47808
rclavicle -8.34896e-015 7.95139e-015
rhumerus 51.9514 -38.1004 -28.1875
rradius 99.3613
rwrist 5.19206
rhand -30.2943 -44.1685
rfingers 7.12502
rthumb -3.60163 -74.1178
lclavicle -8.34896e-015 7.95139e-015
lhumerus 71.7327 45.0999 47.9135
lradius 86.3735
lwrist 53.661
lhand -28.4941 -79.0654
lfingers 7.12502
lthumb -1.86307 -49.0938
rfemur -74.6268 4.18752 27.3684
rtibia 84.3917
rfoot -32.9806 -24.3283
rtoes 3.72679
lfemur -77.8187 3.26703 -22.5523
ltibia 85.0616
lfoot -36.6646 -4.63422
ltoes -19.8115
296
root 7.87495 12.3816 24.3199 -154.416 1.72997 -178.478
lowerback 34.9393 0.255497 -1.06601
upperback -0.658997 0.298103 -0.404916
thorax -18.9341 0.395413 -0.0836072
lowerneck -12.2677 -4.82843 -6.26506
upperneck -14.2188 -3.16371 10.0806
head -1.9352 -0.564075 4.0264
rclavicle 1.11319e-014 7.95139e-015
rhumerus 49.9834 -36.5759 -26.4839
rradius 100.428
rwrist 5.63845
rhand -30.3516 -43.8239
rfingers 7.12502
rthumb -3.657 -73.7723
lclavicle 1.11319e-014 7.95139e-015
lhumerus 68.5196 44.3117 46.1867
lradius 88.5575
lwrist 54.106
lhand -28.2386 -79.1499
lfingers 7.12502
lthumb -1.61634 -49.1763
rfemur -75.5899 4.27241 27.5663
rtibia 85.2605
rfoot -33.1051 -24.3135
rtoes 3.96244
lfemur -78.8508 3.44901 -22.5469
ltibia 85.9759
lfoot -36.7908 -4.73859
ltoes -19.656
297
root 7.87479 12.308 24.3747 -154.361 1.77415 -178.369
lowerback 35.848 0.181251 -1.09246
upperback -0.247737 0.2624 -0.460737
thorax -18.8065 0.415137 -0.130289
lowerneck -12.2082 -4.73992 -6.04075
upperneck -14.9533 -2.89915 10.1898
head -2.1842 -0.398318 4.03905
rclavicle -6.36111e-015 1.0138e-014
rhumerus 48.1322 -35.0135 -25.2097
rradius 101.742
rwrist 5.85032
rhand -30.2957 -43.7815
rfingers 7.12502
rthumb -3.60302 -73.7308
lclavicle -6.36111e-015 1.0138e-014
lhumerus 65.6495 43.3803 44.6144
lradius 90.4959
lwrist 54.2078
lhand -28.181 -79.2859
lfingers 7.12502
lthumb -1.5607 -49.3118
rfemur -76.4072 4.28372 27.7667
rtibia 86.0912
rfoot -33.3301 -24.2178
rtoes 4.00908
lfemur -79.7376 3.62501 -22.5649
ltibia 86.8456
lfoot -36.7532 -4.99673
ltoes -18.3672
298
root 7.87436 12.2318 24.425 -154.256 1.87309 -178.296
lowerback 37.1579 0.31611 -1.11894
upperback -0.226736 0.474486 -0.377647
thorax -19.3322 0.528092 -0.142824
lowerneck -12.9634 -4.92325 -5.84992
upperneck -14.5177 -3.21463 9.62207
head -1.94009 -0.534169 3.80995
rclavicle -4.17448e-015 2.5842e-015
rhumerus 45.8553 -32.6833 -23.2675
rradius 102.536
rwrist 6.38858
rhand -30.6466 -43.968
rfingers 7.12502
rthumb -3.94187 -73.9113
lclavicle -4.17448e-015 2.5842e-015
lhumerus 62.7173 41.4195 43.9492
lradius 92.5506
lwrist 53.8887
lhand -28.0824 -78.792
lfingers 7.12502
lthumb -1.46548 -48.8173
rfemur -77.2847 4.37825 27.881
rtibia 86.9103
rfoot -33.4417 -24.1779
rtoes 4.01636
lfemur -80.6714 3.89285 -22.6968
ltibia 87.6957
lfoot -36.7046 -5.31079
ltoes -17.5084
299
root 7.87402 12.1565 24.4725 -154.183 1.93022 -178.256
lowerback 37.9396 0.260219 -1.33778
upperback 0.157954 0.394226 -0.364092
thorax -19.1608 0.551504 0.0146395
lowerneck -12.669 -4.81172 -5.63919
upperneck -15.3627 -2.94619 9.63649
head -2.25994 -0.376167 3.79893
rclavicle -3.18055e-015 2.78299e-015
rhumerus 44.3102 -30.9402 -21.9365
rradius 103.044
rwrist 6.58973
rhand -30.9678 -44.095
rfingers 7.12502
rthumb -4.25203 -74.0323
lclavicle -3.18055e-015 2.78299e-015
lhumerus 60.5124 39.9274 43.2519
lradius 94.3202
lwrist 53.738
lhand -27.7355 -77.6936
lfingers 7.12502
lthumb -1.13047 -47.7168
rfemur -78.1196 4.34562 28.0437
rtibia 87.6967
rfoot -33.5078 -24.1427
rtoes 4.05489
lfemur -81.5307 4.1127 -22.8484
ltibia 88.4846
lfoot -36.8198 -5.50456
ltoes -17.6885
300
root 7.87208 12.091 24.5167 -154.188 1.96298 -178.261
lowerback 39.3089 0.319698 -1.31513
upperback 0.254788 0.56154 -0.277013
thorax -19.4656 0.652887 -0.00852144
lowerneck -13.3068 -5.01387 -6.24343
upperneck -15.1321 -3.08224 9.97761
head -2.06189 -0.383432 3.99355
rclavicle 1.19271e-015 9.54166e-015
rhumerus 42.7074 -28.9826 -20.2872
rradius 103.351
rwrist 6.81424
rhand -31.0302 -43.9309
rfingers 7.12502
rthumb -4.31234 -73.867
lclavicle 1.19271e-015 9.54166e-015
lhumerus 57.8656 38.1597 42.7033
lradius 96.2786
lwrist 54.067
lhand -27.7097 -77.3111
lfingers 7.12502
lthumb -1.10549 -47.3342
rfemur -78.8151 4.15972 28.2213
rtibia 88.4196
rfoot -33.58 -24.0464
rtoes 4.01146
lfemur -82.2076 4.25234 -23.0178
ltibia 89.1939
lfoot -36.9947 -5.54441
ltoes -17.8493
